HIERARCHY
ROOT Hips
{
	OFFSET -0.001795 -0.223333 0.028219
	CHANNELS 6 Xposition Yposition Zposition Zrotation Yrotation Xrotation 
	JOINT LeftUpLeg
	{
		OFFSET 0.069520 -0.091406 -0.006815
		CHANNELS 3 Zrotation Yrotation Xrotation
		JOINT LeftLeg
		{
			OFFSET 0.034277 -0.375199 -0.004496
			CHANNELS 3 Zrotation Yrotation Xrotation
			JOINT LeftFoot
			{
				OFFSET -0.013596 -0.397961 -0.043693
				CHANNELS 3 Zrotation Yrotation Xrotation
				JOINT LeftToe
				{
					OFFSET 0.026358 -0.055791 0.119288
					CHANNELS 3 Zrotation Yrotation Xrotation
					End Site
					{
						OFFSET 0.000000 0.000000 0.000000
					}
				}
			}
		}
	}
	JOINT RightUpLeg
	{
		OFFSET -0.067670 -0.090522 -0.004320
		CHANNELS 3 Zrotation Yrotation Xrotation
		JOINT RightLeg
		{
			OFFSET -0.038290 -0.382569 -0.008850
			CHANNELS 3 Zrotation Yrotation Xrotation
			JOINT RightFoot
			{
				OFFSET 0.015774 -0.398415 -0.042312
				CHANNELS 3 Zrotation Yrotation Xrotation
				JOINT RightToe
				{
					OFFSET -0.025372 -0.048144 0.123348
					CHANNELS 3 Zrotation Yrotation Xrotation
					End Site
					{
						OFFSET 0.000000 0.000000 0.000000
					}
				}
			}
		}
	}
	JOINT Spine
	{
		OFFSET -0.002533 0.108963 -0.026696
		CHANNELS 3 Zrotation Yrotation Xrotation
		JOINT Spine1
		{
			OFFSET 0.005487 0.135180 0.001092
			CHANNELS 3 Zrotation Yrotation Xrotation
			JOINT Spine2
			{
				OFFSET 0.001457 0.052922 0.025425
				CHANNELS 3 Zrotation Yrotation Xrotation
				JOINT Neck
				{
					OFFSET -0.002778 0.213870 -0.042857
					CHANNELS 3 Zrotation Yrotation Xrotation
					JOINT Head
					{
						OFFSET 0.005152 0.064970 0.051349
						CHANNELS 3 Zrotation Yrotation Xrotation
						End Site
						{
							OFFSET 0.000000 0.000000 0.000000
						}
					}
				}
				JOINT LeftShoulder
				{
					OFFSET 0.078845 0.121749 -0.034090
					CHANNELS 3 Zrotation Yrotation Xrotation
					JOINT LeftArm
					{
						OFFSET 0.090977 0.030469 -0.008868
						CHANNELS 3 Zrotation Yrotation Xrotation
						JOINT LeftForeArm
						{
							OFFSET 0.259612 -0.012772 -0.027456
							CHANNELS 3 Zrotation Yrotation Xrotation
							JOINT LeftHand
							{
								OFFSET 0.249234 0.008986 -0.001171
								CHANNELS 3 Zrotation Yrotation Xrotation
								End Site
								{
									OFFSET 0.000000 0.000000 0.000000
								}
							}
						}
					}
				}
				JOINT RightShoulder
				{
					OFFSET -0.081759 0.118833 -0.038615
					CHANNELS 3 Zrotation Yrotation Xrotation
					JOINT RightArm
					{
						OFFSET -0.096012 0.032551 -0.009143
						CHANNELS 3 Zrotation Yrotation Xrotation
						JOINT RightForeArm
						{
							OFFSET -0.253742 -0.013329 -0.021401
							CHANNELS 3 Zrotation Yrotation Xrotation
							JOINT RightHand
							{
								OFFSET -0.255298 0.007772 -0.005559
								CHANNELS 3 Zrotation Yrotation Xrotation
								End Site
								{
									OFFSET 0.000000 0.000000 0.000000
								}
							}
						}
					}
				}
			}
		}
	}
}
MOTION
Frames: 5
Frame Time: 0.050000
0.637975 0.922799 -0.422083 -5.686695 39.040961 -5.893119 14.082704 -1.714852 -1.825987 -9.053585 -0.180372 -1.424151 11.055562 20.846185 10.233035 0.000000 0.000000 0.000000 -15.723523 -2.471079 -5.261279 8.986350 -4.938892 18.847531 -11.183795 -22.024100 13.949385 0.000000 0.000000 0.000000 1.172329 -0.143055 2.943564 -4.045445 0.949226 4.806409 1.819008 7.291860 6.897204 -1.476825 4.661621 -15.767667 0.000000 0.000000 0.000000 -20.284409 -24.577706 2.731003 -30.483151 -11.369210 1.355429 -37.281521 -52.005850 15.718774 0.000000 0.000000 0.000000 33.965418 16.650709 22.250415 42.888160 29.405700 1.808687 -5.291466 55.896435 2.423848 0.000000 0.000000 0.000000 
0.655969 0.923503 -0.437218 -6.773847 41.042891 -6.854431 13.321608 -1.632938 -2.481720 -7.887641 -0.140896 -0.493662 10.274256 19.610644 9.447419 0.000000 0.000000 0.000000 -13.549843 -2.145581 -6.114686 9.074299 -6.100931 22.015167 -11.616520 -23.612516 11.791573 0.000000 0.000000 0.000000 0.864393 -0.209642 4.047176 -4.295482 1.045964 4.462006 1.020545 8.581052 6.841851 0.165295 3.695876 -14.305840 0.000000 0.000000 0.000000 -21.162035 -25.244171 1.998396 -28.476083 -10.455795 1.433588 -39.223445 -49.928023 15.777551 0.000000 0.000000 0.000000 34.168655 16.138150 23.087163 41.521210 30.240233 1.589457 -0.577061 54.712518 4.569250 0.000000 0.000000 0.000000 
0.673263 0.923839 -0.452773 -7.325426 44.230180 -7.123388 12.591114 -1.606536 -3.140944 -7.753022 -0.270697 -1.337151 9.450283 18.624333 9.863976 0.000000 0.000000 0.000000 -13.127953 -2.305417 -6.992901 8.719235 -7.018103 24.144977 -11.979930 -23.451213 13.172183 0.000000 0.000000 0.000000 0.970302 -0.253928 4.564902 -5.654436 1.484988 4.521573 1.203844 9.101564 6.420819 1.275789 3.021441 -13.477943 0.000000 0.000000 0.000000 -21.822822 -25.582037 1.232334 -28.640738 -8.799157 1.383954 -38.952444 -49.497541 15.234444 0.000000 0.000000 0.000000 35.090959 16.282726 24.532458 38.676898 29.274197 0.509583 2.993364 53.197391 5.644665 0.000000 0.000000 0.000000 
0.690067 0.924318 -0.467818 -8.469521 47.714414 -8.254158 11.980379 -1.583847 -4.479653 -7.499083 -0.320066 -0.250136 8.452651 17.082974 9.214700 0.000000 0.000000 0.000000 -12.291536 -2.343088 -7.297013 8.741622 -8.213787 25.819018 -13.488917 -25.189665 15.210248 0.000000 0.000000 0.000000 0.291477 -0.316119 5.568727 -5.911893 1.402625 4.651036 1.537358 9.383155 6.705969 1.922931 2.672128 -12.874859 0.000000 0.000000 0.000000 -23.240569 -25.483018 0.003323 -27.756996 -7.656726 1.384696 -38.645327 -48.528964 14.872877 0.000000 0.000000 0.000000 35.293517 16.969122 25.992031 36.666092 28.341059 -0.207715 3.751220 50.881389 5.111429 0.000000 0.000000 0.000000 
0.706747 0.924239 -0.481115 -8.855042 50.911587 -8.535341 11.062924 -1.515029 -5.592815 -7.066440 -0.346735 0.935845 7.869402 16.009924 8.650250 0.000000 0.000000 0.000000 -12.319546 -2.560842 -7.226851 8.942449 -8.792315 25.618541 -13.703924 -25.485866 14.895149 0.000000 0.000000 0.000000 -0.118603 -0.344953 6.013056 -6.330065 1.348244 4.894771 1.193867 10.244217 7.068149 3.198534 2.107388 -12.942437 0.000000 0.000000 0.000000 -23.431027 -25.507346 -1.193529 -28.030026 -5.910446 1.328125 -39.517363 -48.984119 14.999198 0.000000 0.000000 0.000000 34.623994 17.074704 26.882482 36.334389 27.972074 -0.510165 4.614037 48.689328 5.002598 0.000000 0.000000 0.000000 
